<svg xmlns="http://www.w3.org/2000/svg" width="48" height="48" fill="none" viewBox="25 -10 70 70"><path fill="#0A3871" fill-rule="evenodd" d="M67.396 23.653a1.867 1.867 0 0 1-.926 1.337c-.493.319-.925.478-1.362.637-.931.322-1.91.643-2.947 1.016-1.092.373-2.072.745-2.946 1.015-1.09.373-2.126.695-3.11 1.067-.742.317-1.438.73-2.07 1.23a8.797 8.797 0 0 0-1.528 1.815c-.437.745-.712 1.707-.712 2.827 0 2.245.545 3.952 1.638 5.02 1.09 1.123 3.11 1.655 6.106 1.655 3.054 0 5.126-.586 6.222-1.761 1.087-1.175 1.632-2.828 1.632-4.962V23.653h.003ZM59.54 0c5.348 0 9.274 1.016 11.78 3.098 2.51 2.031 3.765 4.643 3.765 7.739v26.378c0 1.067-.216 2.242-.597 3.522-.386 1.285-1.147 2.458-2.347 3.522-1.144 1.072-2.725 1.98-4.744 2.674C65.38 47.627 62.763 48 59.544 48c-3.214 0-5.836-.373-7.852-1.067-2.015-.694-3.599-1.602-4.743-2.674a8.55 8.55 0 0 1-2.345-3.522c-.386-1.278-.604-2.453-.604-3.52v-4.216c0-2.244.599-4.327 1.8-6.145 1.2-1.866 2.89-3.147 5.072-3.949 1.09-.372 2.345-.745 3.761-1.226 1.42-.483 2.726-.964 4.037-1.388a72.115 72.115 0 0 0 3.435-1.234c.59-.237 1.191-.45 1.8-.638l.982-.48c.385-.214.763-.535 1.146-.962.38-.424.707-.905.982-1.44.291-.58.44-1.219.437-1.867v-1.71a4.344 4.344 0 0 0-.385-1.817c-.216-.643-.653-1.229-1.252-1.761-.6-.535-1.42-.962-2.399-1.286-.982-.316-2.288-.478-3.764-.478-3.054 0-5.072.592-6.163 1.815-.925 1.07-1.47 2.404-1.578 3.898 0 .321-.273.535-.602.535l-6.65.108a.6.6 0 0 1-.602-.592v-1.542c0-1.5.275-2.887.874-4.222.601-1.337 1.53-2.455 2.782-3.42 1.254-.958 2.892-1.758 4.853-2.292C54.476.265 56.822 0 59.546 0h-.005Z" clip-rule="evenodd"/></svg>